<svg width="46" height="1317" viewBox="0 0 46 1317" fill="none" xmlns="http://www.w3.org/2000/svg">
<line x1="22.5" y1="30" x2="22.5" y2="20" stroke="#564F80"/>
<line x1="22.5" y1="46" x2="22.5" y2="36" stroke="#564F80"/>
<line x1="22.5" y1="61" x2="22.5" y2="51" stroke="#564F80"/>
<line x1="22.5" y1="10" x2="22.5" y2="5.96046e-07" stroke="#564F80"/>
<line x1="22.5" y1="77" x2="22.5" y2="67" stroke="#564F80"/>
<line x1="22.5" y1="93" x2="22.5" y2="83" stroke="#564F80"/>
<line x1="22.5" y1="109" x2="22.5" y2="99" stroke="#564F80"/>
<line x1="22.5" y1="125" x2="22.5" y2="115" stroke="#564F80"/>
<line x1="22.5" y1="141" x2="22.5" y2="131" stroke="#564F80"/>
<line x1="22.5" y1="157" x2="22.5" y2="147" stroke="#564F80"/>
<line x1="22.5" y1="173" x2="22.5" y2="163" stroke="#564F80"/>
<line x1="22.5" y1="189" x2="22.5" y2="179" stroke="#564F80"/>
<line x1="22.5" y1="205" x2="22.5" y2="195" stroke="#564F80"/>
<line x1="22.5" y1="221" x2="22.5" y2="211" stroke="#564F80"/>
<line x1="22.5" y1="237" x2="22.5" y2="227" stroke="#564F80"/>
<line x1="22.5" y1="253" x2="22.5" y2="243" stroke="#564F80"/>
<line x1="22.5" y1="269" x2="22.5" y2="259" stroke="#564F80"/>
<line x1="22.5" y1="285" x2="22.5" y2="275" stroke="#564F80"/>
<line x1="22.5" y1="301" x2="22.5" y2="291" stroke="#564F80"/>
<line x1="22.5" y1="317" x2="22.5" y2="307" stroke="#564F80"/>
<line x1="22.5" y1="333" x2="22.5" y2="323" stroke="#564F80"/>
<line x1="22.5" y1="355" x2="22.5" y2="345" stroke="#564F80"/>
<line x1="22.5" y1="375" x2="22.5" y2="365" stroke="#564F80"/>
<line x1="22.5" y1="391" x2="22.5" y2="381" stroke="#564F80"/>
<line x1="22.5" y1="406" x2="22.5" y2="396" stroke="#564F80"/>
<line x1="22.5" y1="422" x2="22.5" y2="412" stroke="#564F80"/>
<line x1="22.5" y1="438" x2="22.5" y2="428" stroke="#564F80"/>
<line x1="22.5" y1="454" x2="22.5" y2="444" stroke="#564F80"/>
<line x1="22.5" y1="470" x2="22.5" y2="460" stroke="#564F80"/>
<line x1="22.5" y1="486" x2="22.5" y2="476" stroke="#564F80"/>
<line x1="22.5" y1="502" x2="22.5" y2="492" stroke="#564F80"/>
<line x1="22.5" y1="518" x2="22.5" y2="508" stroke="#564F80"/>
<line x1="22.5" y1="534" x2="22.5" y2="524" stroke="#564F80"/>
<line x1="22.5" y1="550" x2="22.5" y2="540" stroke="#564F80"/>
<line x1="22.5" y1="566" x2="22.5" y2="556" stroke="#564F80"/>
<line x1="22.5" y1="582" x2="22.5" y2="572" stroke="#564F80"/>
<line x1="22.5" y1="598" x2="22.5" y2="588" stroke="#564F80"/>
<line x1="22.5" y1="614" x2="22.5" y2="604" stroke="#564F80"/>
<line x1="22.5" y1="630" x2="22.5" y2="620" stroke="#564F80"/>
<line x1="22.5" y1="630" x2="22.5" y2="620" stroke="#564F80"/>
<line x1="22.5" y1="646" x2="22.5" y2="636" stroke="#564F80"/>
<line x1="22.5" y1="664" x2="22.5" y2="654" stroke="#564F80"/>
<line x1="22.5" y1="680" x2="22.5" y2="670" stroke="#564F80"/>
<line x1="22.5" y1="717" x2="22.5" y2="707" stroke="#564F80"/>
<line x1="22.5" y1="733" x2="22.5" y2="723" stroke="#564F80"/>
<line x1="22.5" y1="748" x2="22.5" y2="738" stroke="#564F80"/>
<line x1="22.5" y1="699" x2="22.5" y2="689" stroke="#564F80"/>
<line x1="22.5" y1="764" x2="22.5" y2="754" stroke="#564F80"/>
<line x1="22.5" y1="780" x2="22.5" y2="770" stroke="#564F80"/>
<line x1="22.5" y1="796" x2="22.5" y2="786" stroke="#564F80"/>
<line x1="22.5" y1="812" x2="22.5" y2="802" stroke="#564F80"/>
<line x1="22.5" y1="828" x2="22.5" y2="818" stroke="#564F80"/>
<line x1="22.5" y1="844" x2="22.5" y2="834" stroke="#564F80"/>
<line x1="22.5" y1="860" x2="22.5" y2="850" stroke="#564F80"/>
<line x1="22.5" y1="876" x2="22.5" y2="866" stroke="#564F80"/>
<line x1="22.5" y1="892" x2="22.5" y2="882" stroke="#564F80"/>
<line x1="22.5" y1="908" x2="22.5" y2="898" stroke="#564F80"/>
<line x1="22.5" y1="924" x2="22.5" y2="914" stroke="#564F80"/>
<line x1="22.5" y1="940" x2="22.5" y2="930" stroke="#564F80"/>
<line x1="22.5" y1="956" x2="22.5" y2="946" stroke="#564F80"/>
<line x1="22.5" y1="972" x2="22.5" y2="962" stroke="#564F80"/>
<line x1="22.5" y1="988" x2="22.5" y2="978" stroke="#564F80"/>
<line x1="22.5" y1="1006" x2="22.5" y2="996" stroke="#564F80"/>
<line x1="22.5" y1="1025" x2="22.5" y2="1015" stroke="#564F80"/>
<line x1="22.5" y1="1043" x2="22.5" y2="1033" stroke="#564F80"/>
<line x1="22.5" y1="1060" x2="22.5" y2="1050" stroke="#564F80"/>
<line x1="22.5" y1="1078" x2="22.5" y2="1068" stroke="#564F80"/>
<line x1="22.5" y1="1093" x2="22.5" y2="1083" stroke="#564F80"/>
<line x1="22.5" y1="1109" x2="22.5" y2="1099" stroke="#564F80"/>
<line x1="22.5" y1="1125" x2="22.5" y2="1115" stroke="#564F80"/>
<line x1="22.5" y1="1141" x2="22.5" y2="1131" stroke="#564F80"/>
<line x1="22.5" y1="1157" x2="22.5" y2="1147" stroke="#564F80"/>
<line x1="22.5" y1="1173" x2="22.5" y2="1163" stroke="#564F80"/>
<line x1="22.5" y1="1189" x2="22.5" y2="1179" stroke="#564F80"/>
<line x1="22.5" y1="1205" x2="22.5" y2="1195" stroke="#564F80"/>
<line x1="22.5" y1="1221" x2="22.5" y2="1211" stroke="#564F80"/>
<line x1="22.5" y1="1237" x2="22.5" y2="1227" stroke="#564F80"/>
<line x1="22.5" y1="1253" x2="22.5" y2="1243" stroke="#564F80"/>
<line x1="22.5" y1="1269" x2="22.5" y2="1259" stroke="#564F80"/>
<line x1="22.5" y1="1285" x2="22.5" y2="1275" stroke="#564F80"/>
<line x1="22.5" y1="1301" x2="22.5" y2="1291" stroke="#564F80"/>
<line x1="22.5" y1="1317" x2="22.5" y2="1307" stroke="#564F80"/>
<line x1="22.5" y1="1317" x2="22.5" y2="1307" stroke="#564F80"/>
<circle cx="23.5" cy="60.5" r="7.5" fill="#564F80"/>
<circle cx="23.5" cy="60.5" r="22" stroke="#564F80"/>
<circle cx="23.5" cy="318.5" r="7.5" fill="#564F80"/>
<circle cx="23.5" cy="318.5" r="22" stroke="#564F80"/>
<circle cx="23.5" cy="637.5" r="7.5" fill="#564F80"/>
<circle cx="23.5" cy="637.5" r="22" stroke="#564F80"/>
<circle cx="22.5" cy="949.5" r="7.5" fill="#564F80"/>
<circle cx="22.5" cy="949.5" r="22" stroke="#564F80"/>
<circle cx="22.5" cy="1225.5" r="7.5" fill="#564F80"/>
<circle cx="22.5" cy="1225.5" r="22" stroke="#564F80"/>
</svg>
