<svg width="100" height="100" viewBox="0 0 100 100" xmlns="http://www.w3.org/2000/svg">
    <defs>
        <linearGradient x1="0%" y1="79.232%" x2="97.998%" y2="39.421%" id="15vfebqgna">
            <stop stop-color="#FF55E1" offset="0%"/>
            <stop stop-color="#FF0402" offset="46.078%"/>
            <stop stop-color="#FFB402" offset="99.916%"/>
            <stop stop-color="#FFB402" offset="100%"/>
        </linearGradient>
    </defs>
    <path d="m653 2879 50 50-50 50-50-50 50-50zm-25.85 44.118a5.679 5.679 0 0 0-5.673 5.672 5.679 5.679 0 0 0 5.673 5.673 5.679 5.679 0 0 0 5.672-5.673 5.679 5.679 0 0 0-5.672-5.672zm56.124.663h-9.677v10.51h1.86v-8.65h5.956v8.65h1.86v-10.51zm-16.884 0h-9.678v10.51h9.678v-1.86h-7.817v-2.465h6.086v-1.86h-6.086v-2.465h7.817v-1.86zm-17.102-.073-5.256 2.102-5.255-2.102v10.584h1.86v-7.837l3.395 1.358 3.395-1.358v7.837h1.86v-10.584zm-22.139 1.311a3.776 3.776 0 0 1 3.772 3.771 3.776 3.776 0 0 1-3.772 3.772 3.776 3.776 0 0 1-3.77-3.772 3.776 3.776 0 0 1 3.77-3.77z" transform="translate(-603 -2879)" fill="url(#15vfebqgna)" fill-rule="evenodd"/>
</svg>
